<svg xmlns="http://www.w3.org/2000/svg" width="325" height="456" fill="none" viewBox="0 0 325 456"><g clip-path="url(#clip0_8783_10722)"><g clip-path="url(#clip1_8783_10722)"><rect width="627" height="465" x="-150" y="-9" fill="#F6F7F7" rx="4.45"/><path stroke="#98DBFF" stroke-dasharray=".04 5.17" stroke-linecap="round" stroke-linejoin="round" stroke-width="1.59" d="M504.054 -114.322L-166.483 272.812"/><path stroke="#98DBFF" stroke-dasharray=".04 5.17" stroke-linecap="round" stroke-linejoin="round" stroke-width="1.59" d="M504.054 8.07422L-166.483 395.209"/><path stroke="#98DBFF" stroke-dasharray=".04 5.17" stroke-linecap="round" stroke-linejoin="round" stroke-width="1.59" d="M504.054 130.471L-166.483 517.605"/><path stroke="#98DBFF" stroke-dasharray=".04 5.17" stroke-linecap="round" stroke-linejoin="round" stroke-width="1.59" d="M504.056 252.867L-166.483 640.003"/><path stroke="#98DBFF" stroke-dasharray=".04 5.17" stroke-linecap="round" stroke-linejoin="round" stroke-width="1.59" d="M504.054 375.265L-166.483 762.399"/><path stroke="#98DBFF" stroke-dasharray=".04 5.17" stroke-linecap="round" stroke-linejoin="round" stroke-width="1.59" d="M-166.481 -114.322L504.056 272.812"/><path stroke="#98DBFF" stroke-dasharray=".04 5.17" stroke-linecap="round" stroke-linejoin="round" stroke-width="1.59" d="M-166.481 8.07422L504.056 395.209"/><path stroke="#98DBFF" stroke-dasharray=".04 5.17" stroke-linecap="round" stroke-linejoin="round" stroke-width="1.59" d="M-166.481 130.471L504.056 517.605"/><path stroke="#98DBFF" stroke-dasharray=".04 5.17" stroke-linecap="round" stroke-linejoin="round" stroke-width="1.59" d="M-166.483 252.867L504.056 640.003"/><path stroke="#98DBFF" stroke-dasharray=".04 5.17" stroke-linecap="round" stroke-linejoin="round" stroke-width="1.59" d="M-166.481 375.265L504.056 762.399"/><path fill="#104E30" d="M59.2932 262.556L167.936 199.868L276.579 262.556L167.936 325.244L59.2932 262.556Z"/><path fill="#022836" d="M59.2932 225.592L167.936 162.904L276.579 225.592L167.936 288.28L59.2932 225.592Z"/><path fill="#F4B1FF" d="M59.293 188.129L167.936 125.441L276.578 188.129L167.936 250.818L59.293 188.129Z" opacity=".5"/></g></g><defs><clipPath id="clip0_8783_10722"><rect width="325" height="456" fill="#fff"/></clipPath><clipPath id="clip1_8783_10722"><rect width="627" height="465" x="-150" y="-9" fill="#fff" rx="4.45"/></clipPath></defs></svg>