<svg xmlns="http://www.w3.org/2000/svg" width="78" height="78" fill="none" viewBox="0 0 78 78"><rect width="77.371" height="77.371" y=".315" fill="#F4B1FF" rx="38.685"/><rect width="40.013" height="25.008" x="16.977" y="39.258" fill="#fff" rx="5.978" transform="rotate(-22.1764 16.9766 39.2579)"/><rect width="38.013" height="23.008" x="10.973" y="41.563" stroke="#022836" stroke-width="2" rx="4.978" transform="rotate(-36.6748 10.9735 41.5632)"/><circle cx="43.729" cy="39.277" r="3.608" fill="#022836" transform="rotate(-36.6748 43.7292 39.2769)"/><circle cx="46.907" cy="36.592" r="2.608" stroke="#022836" stroke-width="2" transform="rotate(-36.6748 46.907 36.5924)"/><path stroke="#022836" stroke-linecap="round" stroke-width="2" d="M49.9841 16.7635C51.104 15.7614 53.4852 12.979 54.051 9.86672"/><path stroke="#022836" stroke-linecap="round" stroke-width="2" d="M31.9935 66.1226C32.2335 66.7905 33.0291 68.3262 34.291 69.1258"/><path stroke="#022836" stroke-linecap="round" stroke-width="2" d="M50.5724 20.8894C50.5724 20.8894 55.9364 20.1229 58.1761 15.1714"/><path stroke="#022836" stroke-linecap="round" stroke-width="2" d="M24.1869 65.2893C24.1869 65.2893 22.8749 67.4864 24.0275 69.7795"/></svg>