<svg xmlns="http://www.w3.org/2000/svg" xmlns:xlink="http://www.w3.org/1999/xlink" id="Analytics" x="0" y="0" version="1.1" viewBox="0 0 2500 2498" xml:space="preserve" style="enable-background:new 0 0 2500 2498"><style type="text/css">.st0{fill:url(#SVGID_1_)}.st1{fill:url(#SVGID_2_)}.st2{clip-path:url(#SVGID_4_)}.st3{fill:#f57c00}.st4{fill:#ffc107}.st5{clip-path:url(#SVGID_6_);fill:url(#SVGID_7_)}.st6{opacity:.2;clip-path:url(#SVGID_9_);enable-background:new}.st6,.st7,.st8{fill:#fff}.st7,.st8,.st9{opacity:.2;enable-background:new}.st7{clip-path:url(#SVGID_11_)}.st8{clip-path:url(#SVGID_13_)}.st9{clip-path:url(#SVGID_15_);fill:#bf360c}.st10{fill:url(#SVGID_16_)}</style><linearGradient id="SVGID_1_" x1="886.559" x2="1038.659" y1="1515.776" y2="1515.776" gradientTransform="matrix(16.4342 0 0 16.4342 -14569.7158 -23661.582)" gradientUnits="userSpaceOnUse"><stop offset="0" style="stop-color:#fff;stop-opacity:.1"/><stop offset="1" style="stop-color:#fff;stop-opacity:0"/></linearGradient><path d="M2297.7,0h-455.2C1732.3,0,1642,90.4,1642,200.5v588.3h-659c-106.8,0-193.9,87.1-193.9,195.6v659H195.7	c-108.5,0-195.6,87.1-195.6,195.6v460.2c0,108.5,87.1,195.6,195.6,198.9h2103.6c110.1,0,200.5-90.4,200.5-200.5v-2097	C2498.2,90.4,2407.8,0,2297.7,0z" class="st0"/><linearGradient id="SVGID_2_" x1="886.559" x2="1038.659" y1="1515.776" y2="1515.776" gradientTransform="matrix(16.4342 0 0 16.4342 -14569.7158 -23661.582)" gradientUnits="userSpaceOnUse"><stop offset="0" style="stop-color:#fff;stop-opacity:.1"/><stop offset="1" style="stop-color:#fff;stop-opacity:0"/></linearGradient><path d="M2297.7,0h-455.2C1732.3,0,1642,90.4,1642,200.5v588.3h-659c-106.8,0-193.9,87.1-193.9,195.6v659H195.7	c-108.5,0-195.6,87.1-195.6,195.6v460.2c0,108.5,87.1,195.6,195.6,198.9h2103.6c110.1,0,200.5-90.4,200.5-200.5v-2097	C2498.2,90.4,2407.8,0,2297.7,0z" class="st1"/><g><defs><path id="SVGID_3_" d="M2297.7,0h-451.9c-110.1,0-200.5,90.4-200.5,200.5v588.3H987.9c-108.5,0-197.2,88.7-197.2,197.2v657.4 H197.4c-108.5,0-197.2,88.7-197.2,197.2v460.2c0,108.5,88.7,197.2,197.2,197.2h2100.3c110.1,0,200.5-90.4,200.5-200.5v-2097 C2498.2,90.4,2407.8,0,2297.7,0z"/></defs><clipPath id="SVGID_4_"><use xlink:href="#SVGID_3_" style="overflow:visible"/></clipPath><g class="st2"><path d="M2297.7,0h-451.9c-110.1,0-200.5,90.4-200.5,200.5V2498h652.4c110.1,0,200.5-90.4,200.5-200.5v-2097 C2498.2,90.4,2407.8,0,2297.7,0z" class="st3"/><path d="M789,986.1v657.4H197.4c-108.5,0-197.2,88.7-197.2,197.2v460.2c0,108.5,88.7,197.2,197.2,197.2h1446.2V788.8 H986.2C877.8,788.8,789,877.6,789,986.1z" class="st4"/></g></g><g><defs><path id="SVGID_5_" d="M2297.7,0h-451.9c-110.1,0-200.5,90.4-200.5,200.5v588.3H987.9c-108.5,0-197.2,88.7-197.2,197.2v657.4 H197.4c-108.5,0-197.2,88.7-197.2,197.2v460.2c0,108.5,88.7,197.2,197.2,197.2h2100.3c110.1,0,200.5-90.4,200.5-200.5v-2097 C2498.2,90.4,2407.8,0,2297.7,0z"/></defs><clipPath id="SVGID_6_"><use xlink:href="#SVGID_5_" style="overflow:visible"/></clipPath><linearGradient id="SVGID_7_" x1="960.809" x2="1034.919" y1="1514.026" y2="1588.136" gradientTransform="matrix(16.4342 0 0 16.4342 -14569.7158 -23661.582)" gradientUnits="userSpaceOnUse"><stop offset="0" style="stop-color:#bf360c;stop-opacity:.2"/><stop offset="1" style="stop-color:#bf360c;stop-opacity:2.000000e-02"/></linearGradient><path d="M1643.6,788.8V2498H2296c110.1,0,200.5-90.4,200.5-200.5v-654.1L1643.6,788.8z" class="st5"/></g><g><g><defs><path id="SVGID_8_" d="M2297.7,0h-451.9c-110.1,0-200.5,90.4-200.5,200.5v588.3H987.9c-108.5,0-197.2,88.7-197.2,197.2v657.4 H197.4c-108.5,0-197.2,88.7-197.2,197.2v460.2c0,108.5,88.7,197.2,197.2,197.2h2100.3c110.1,0,200.5-90.4,200.5-200.5v-2097 C2498.2,90.4,2407.8,0,2297.7,0z"/></defs><clipPath id="SVGID_9_"><use xlink:href="#SVGID_8_" style="overflow:visible"/></clipPath><path d="M986.2,805.3h657.4v-16.4H986.2c-108.5,0-197.2,88.7-197.2,197.2v16.4C789,894,877.8,805.3,986.2,805.3z" class="st6"/></g></g><g><g><defs><path id="SVGID_10_" d="M2297.7,0h-451.9c-110.1,0-200.5,90.4-200.5,200.5v588.3H987.9c-108.5,0-197.2,88.7-197.2,197.2v657.4 H197.4c-108.5,0-197.2,88.7-197.2,197.2v460.2c0,108.5,88.7,197.2,197.2,197.2h2100.3c110.1,0,200.5-90.4,200.5-200.5v-2097 C2498.2,90.4,2407.8,0,2297.7,0z"/></defs><clipPath id="SVGID_11_"><use xlink:href="#SVGID_10_" style="overflow:visible"/></clipPath><path d="M197.4,1659.9H789v-16.4H197.4c-108.5,0-197.2,88.7-197.2,197.2v16.4C0.2,1748.6,88.9,1659.9,197.4,1659.9z" class="st7"/></g></g><g><g><defs><path id="SVGID_12_" d="M2297.7,0h-451.9c-110.1,0-200.5,90.4-200.5,200.5v588.3H987.9c-108.5,0-197.2,88.7-197.2,197.2v657.4 H197.4c-108.5,0-197.2,88.7-197.2,197.2v460.2c0,108.5,88.7,197.2,197.2,197.2h2100.3c110.1,0,200.5-90.4,200.5-200.5v-2097 C2498.2,90.4,2407.8,0,2297.7,0z"/></defs><clipPath id="SVGID_13_"><use xlink:href="#SVGID_12_" style="overflow:visible"/></clipPath><path d="M2297.7,0h-451.9c-110.1,0-200.5,90.4-200.5,200.5v16.4c0-110.1,90.4-200.5,200.5-200.5h451.9 c110.1,0,200.5,90.4,200.5,200.5v-16.4C2498.2,90.4,2407.8,0,2297.7,0z" class="st8"/></g></g><g><g><defs><path id="SVGID_14_" d="M2297.7,0h-451.9c-110.1,0-200.5,90.4-200.5,200.5v588.3H987.9c-108.5,0-197.2,88.7-197.2,197.2v657.4 H197.4c-108.5,0-197.2,88.7-197.2,197.2v460.2c0,108.5,88.7,197.2,197.2,197.2h2100.3c110.1,0,200.5-90.4,200.5-200.5v-2097 C2498.2,90.4,2407.8,0,2297.7,0z"/></defs><clipPath id="SVGID_15_"><use xlink:href="#SVGID_14_" style="overflow:visible"/></clipPath><path d="M2297.7,2481.6H197.4c-108.5,0-197.2-88.7-197.2-197.2v16.4c0,108.5,88.7,197.2,197.2,197.2H2296 c110.1,0,200.5-90.4,200.5-200.5v-16.4C2498.2,2391.2,2407.8,2481.6,2297.7,2481.6L2297.7,2481.6z" class="st9"/></g></g><linearGradient id="SVGID_16_" x1="937.528" x2="1035.854" y1="1490.807" y2="1589.133" gradientTransform="matrix(16.4342 0 0 16.4342 -14569.7158 -23661.582)" gradientUnits="userSpaceOnUse"><stop offset="0" style="stop-color:#fff;stop-opacity:.1"/><stop offset="1" style="stop-color:#fff;stop-opacity:0"/></linearGradient><path d="M2297.7,0h-451.9c-110.1,0-200.5,90.4-200.5,200.5v588.3H987.9c-108.5,0-197.2,88.7-197.2,197.2v657.4H197.4	c-108.5,0-197.2,88.7-197.2,197.2v460.2c0,108.5,88.7,197.2,197.2,197.2h2100.3c110.1,0,200.5-90.4,200.5-200.5v-2097	C2498.2,90.4,2407.8,0,2297.7,0z" class="st10"/></svg>