<svg xmlns="http://www.w3.org/2000/svg" width="1439" height="519" fill="none" viewBox="0 0 1439 519"><rect width="180.104" height="173" x="719.479" y=".156" fill="url(#paint0_linear_712_25678)"/><rect width="180.104" height="173" x="539.386" y=".156" fill="url(#paint1_linear_712_25678)"/><rect width="180.104" height="173" x="359.365" y=".156" fill="url(#paint2_linear_712_25678)"/><rect width="180.104" height="173" x="179.343" y=".156" fill="url(#paint3_linear_712_25678)"/><rect width="180.104" height="173" x=".079" y=".156" fill="url(#paint4_linear_712_25678)"/><rect width="180.104" height="173" x="359.365" y="173.078" fill="url(#paint5_linear_712_25678)"/><rect width="180.104" height="173" x="899.086" y="173.078" fill="url(#paint6_linear_712_25678)"/><rect width="180.104" height="173" x="899.086" y=".156" fill="url(#paint7_linear_712_25678)"/><rect width="180.104" height="173" x="719.479" y="173.078" fill="url(#paint8_linear_712_25678)"/><rect width="180.104" height="173" x="539.386" y="173.078" fill="url(#paint9_linear_712_25678)"/><rect width="180.104" height="173" x="1079.1" y="346" fill="url(#paint10_linear_712_25678)"/><rect width="180.104" height="173" x="1078.76" y=".156" fill="url(#paint11_linear_712_25678)"/><rect width="180.774" height="173" x="1078.77" y=".156" fill="url(#paint12_linear_712_25678)"/><rect width="180.104" height="173" x="1079.1" y="173.078" fill="url(#paint13_linear_712_25678)"/><rect width="180.104" height="173" x="899.086" y="346" fill="url(#paint14_linear_712_25678)"/><rect width="180.104" height="173" x="719.479" y="346" fill="url(#paint15_linear_712_25678)"/><rect width="180.104" height="173" x="1258.79" y=".156" fill="url(#paint16_linear_712_25678)"/><rect width="180.104" height="173" x="1258.9" y="173.078" fill="url(#paint17_linear_712_25678)"/><rect width="180.104" height="173" x="1258.79" y="346" fill="url(#paint18_linear_712_25678)"/><defs><linearGradient id="paint0_linear_712_25678" x1="707.769" x2="830.338" y1="-87.857" y2="123.469" gradientUnits="userSpaceOnUse"><stop stop-color="#A93B66"/><stop offset="1"/></linearGradient><linearGradient id="paint1_linear_712_25678" x1="539.386" x2="629.438" y1="-297.899" y2="99.218" gradientUnits="userSpaceOnUse"><stop stop-color="#9A347B"/><stop offset="1"/></linearGradient><linearGradient id="paint2_linear_712_25678" x1="217.706" x2="435.75" y1="-258.93" y2="73.239" gradientUnits="userSpaceOnUse"><stop stop-color="#963281"/><stop offset="1"/></linearGradient><linearGradient id="paint3_linear_712_25678" x1="37.685" x2="229.956" y1="-258.93" y2="46.331" gradientUnits="userSpaceOnUse"><stop stop-color="#83297D"/><stop offset="1"/></linearGradient><linearGradient id="paint4_linear_712_25678" x1="-141.579" x2="50.692" y1="-258.93" y2="46.331" gradientUnits="userSpaceOnUse"><stop stop-color="#83297D"/><stop offset="1"/></linearGradient><linearGradient id="paint5_linear_712_25678" x1="217.706" x2="409.978" y1="-86.008" y2="219.253" gradientUnits="userSpaceOnUse"><stop stop-color="#83297D"/><stop offset="1"/></linearGradient><linearGradient id="paint6_linear_712_25678" x1="956.842" x2="1009.95" y1="74.787" y2="296.39" gradientUnits="userSpaceOnUse"><stop stop-color="#A93B66"/><stop offset="1"/></linearGradient><linearGradient id="paint7_linear_712_25678" x1="923.055" x2="989.138" y1="-92.084" y2="147.419" gradientUnits="userSpaceOnUse"><stop stop-color="#AC3E5E"/><stop offset="1"/></linearGradient><linearGradient id="paint8_linear_712_25678" x1="712.044" x2="809.53" y1="-14.986" y2="272.14" gradientUnits="userSpaceOnUse"><stop stop-color="#9A347B"/><stop offset="1"/></linearGradient><linearGradient id="paint9_linear_712_25678" x1="422.78" x2="615.772" y1="-9.925" y2="246.16" gradientUnits="userSpaceOnUse"><stop stop-color="#963281"/><stop offset="1"/></linearGradient><linearGradient id="paint10_linear_712_25678" x1="957.963" x2="1191.83" y1="65.549" y2="432.5" gradientUnits="userSpaceOnUse"><stop stop-color="#A93B66"/><stop offset="1"/></linearGradient><linearGradient id="paint11_linear_712_25678" x1="1140.5" x2="1191.67" y1="-8.989" y2="139.376" gradientUnits="userSpaceOnUse"><stop stop-color="#FFA8CB"/><stop offset="1" stop-color="#fff"/></linearGradient><linearGradient id="paint12_linear_712_25678" x1="1154.59" x2="1169.01" y1="-59.345" y2="173.165" gradientUnits="userSpaceOnUse"><stop stop-color="#BE4745"/><stop offset="1"/></linearGradient><linearGradient id="paint13_linear_712_25678" x1="1103.07" x2="1169.16" y1="80.838" y2="320.341" gradientUnits="userSpaceOnUse"><stop stop-color="#AC3E5E"/><stop offset="1"/></linearGradient><linearGradient id="paint14_linear_712_25678" x1="899.086" x2="959.81" y1="192.344" y2="412.672" gradientUnits="userSpaceOnUse"><stop stop-color="#9A347B"/><stop offset="1"/></linearGradient><linearGradient id="paint15_linear_712_25678" x1="577.82" x2="770.092" y1="86.913" y2="392.174" gradientUnits="userSpaceOnUse"><stop stop-color="#963281"/><stop offset="1"/></linearGradient><linearGradient id="paint16_linear_712_25678" x1="1300.04" x2="1412.83" y1="-70.455" y2="157.281" gradientUnits="userSpaceOnUse"><stop stop-color="#D6382A"/><stop offset="1"/></linearGradient><linearGradient id="paint17_linear_712_25678" x1="1222.75" x2="1349.53" y1="112.119" y2="345.764" gradientUnits="userSpaceOnUse"><stop stop-color="#BE4745"/><stop offset="1"/></linearGradient><linearGradient id="paint18_linear_712_25678" x1="1233.91" x2="1374.79" y1="251.516" y2="488.201" gradientUnits="userSpaceOnUse"><stop stop-color="#B24158"/><stop offset=".862"/></linearGradient></defs></svg>