<svg xmlns="http://www.w3.org/2000/svg" width="1440" height="347" fill="none" viewBox="0 0 1440 347"><rect width="180.104" height="173" x="1259.89" y="346.923" fill="url(#paint0_linear_787_51583)" transform="rotate(-180 1259.89 346.923)"/><rect width="180.104" height="173" x="1439.15" y="346.923" fill="url(#paint1_linear_787_51583)" opacity=".5" transform="rotate(-180 1439.15 346.923)"/><rect width="180.104" height="173" x="1079.86" y="346.844" fill="url(#paint2_linear_787_51583)" transform="rotate(-180 1079.86 346.844)"/><rect width="180.104" height="173" x="540.144" y="346.844" fill="url(#paint3_linear_787_51583)" transform="rotate(-180 540.144 346.844)"/><rect width="180.104" height="173" x="719.751" y="346.844" fill="url(#paint4_linear_787_51583)" transform="rotate(-180 719.751 346.844)"/><rect width="180.104" height="173" x="899.843" y="346.844" fill="url(#paint5_linear_787_51583)" transform="rotate(-180 899.843 346.844)"/><rect width="180.104" height="173" x="360.125" y="173.923" fill="url(#paint6_linear_787_51583)" transform="rotate(-180 360.125 173.923)"/><rect width="180.104" height="173" x="360.125" y="346.844" fill="url(#paint7_linear_787_51583)" transform="rotate(-180 360.125 346.844)"/><rect width="180.104" height="173" x="540.144" y="173.923" fill="url(#paint8_linear_787_51583)" transform="rotate(-180 540.144 173.923)"/><rect width="180.104" height="173" x="719.751" y="173.923" fill="url(#paint9_linear_787_51583)" transform="rotate(-180 719.751 173.923)"/><rect width="180.104" height="173" x="180.333" y="346.844" fill="url(#paint10_linear_787_51583)" transform="rotate(-180 180.333 346.844)"/><rect width="180.104" height="173" x="180.439" y="173.923" fill="url(#paint11_linear_787_51583)" transform="rotate(-180 180.439 173.923)"/><defs><linearGradient id="paint0_linear_787_51583" x1="1118.23" x2="1310.5" y1="87.837" y2="393.098" gradientUnits="userSpaceOnUse"><stop stop-color="#017E57"/><stop offset="1"/></linearGradient><linearGradient id="paint1_linear_787_51583" x1="1297.49" x2="1489.76" y1="87.837" y2="393.098" gradientUnits="userSpaceOnUse"><stop stop-color="#017E57"/><stop offset="1"/></linearGradient><linearGradient id="paint2_linear_787_51583" x1="938.206" x2="1130.48" y1="87.758" y2="393.019" gradientUnits="userSpaceOnUse"><stop stop-color="#017E57"/><stop offset="1"/></linearGradient><linearGradient id="paint3_linear_787_51583" x1="597.9" x2="651.003" y1="248.554" y2="470.157" gradientUnits="userSpaceOnUse"><stop stop-color="#019C3B"/><stop offset="1"/></linearGradient><linearGradient id="paint4_linear_787_51583" x1="712.316" x2="809.803" y1="158.781" y2="445.906" gradientUnits="userSpaceOnUse"><stop stop-color="#017E57"/><stop offset="1"/></linearGradient><linearGradient id="paint5_linear_787_51583" x1="783.237" x2="976.229" y1="163.842" y2="419.927" gradientUnits="userSpaceOnUse"><stop stop-color="#017E57"/><stop offset="1"/></linearGradient><linearGradient id="paint6_linear_787_51583" x1="238.984" x2="472.852" y1="-106.528" y2="260.423" gradientUnits="userSpaceOnUse"><stop stop-color="#019C3B"/><stop offset="1"/></linearGradient><linearGradient id="paint7_linear_787_51583" x1="392.103" x2="476.127" y1="318.452" y2="489.045" gradientUnits="userSpaceOnUse"><stop stop-color="#016BAD"/><stop offset=".862"/></linearGradient><linearGradient id="paint8_linear_787_51583" x1="540.144" x2="600.867" y1="20.268" y2="240.596" gradientUnits="userSpaceOnUse"><stop stop-color="#017E57"/><stop offset="1"/></linearGradient><linearGradient id="paint9_linear_787_51583" x1="578.093" x2="770.364" y1="-85.163" y2="220.098" gradientUnits="userSpaceOnUse"><stop stop-color="#017E57"/><stop offset="1"/></linearGradient><linearGradient id="paint10_linear_787_51583" x1="144.184" x2="270.964" y1="285.885" y2="519.53" gradientUnits="userSpaceOnUse"><stop stop-color="#014ED0"/><stop offset="1"/></linearGradient><linearGradient id="paint11_linear_787_51583" x1="155.557" x2="296.441" y1="79.439" y2="316.124" gradientUnits="userSpaceOnUse"><stop stop-color="#016BAD"/><stop offset=".862"/></linearGradient></defs></svg>