<svg xmlns="http://www.w3.org/2000/svg" width="20" height="20" fill="none" viewBox="0 0 20 20"><mask id="mask0" width="12" height="18" x="4" y="1" mask-type="alpha" maskUnits="userSpaceOnUse"><path fill="#fff" fill-rule="evenodd" d="M15.4167 17.9498C14.625 18.1998 13.7917 18.3332 12.9167 18.3332C8.31669 18.3332 4.58336 14.5998 4.58336 9.99985C4.58336 5.39985 8.31669 1.66651 12.9167 1.66652C13.7917 1.66652 14.625 1.79985 15.4167 2.04985C12.0334 3.10818 9.58336 6.26652 9.58335 9.99985C9.58335 13.7332 12.0334 16.8915 15.4167 17.9498ZM6.25002 9.99985C6.25002 12.5665 7.70835 14.7998 9.83335 15.9082C8.61669 14.2415 7.91669 12.1915 7.91669 9.99985C7.91669 7.80818 8.61669 5.75818 9.83336 4.09152C7.70836 5.19985 6.25002 7.43318 6.25002 9.99985Z" clip-rule="evenodd"/></mask><g mask="url(#mask0)"><rect width="20" height="20" x="20" y="20" fill="#2C3338" transform="rotate(-180 20 19.9998)"/></g></svg>