<svg xmlns="http://www.w3.org/2000/svg" width="105" height="104" fill="none" viewBox="0 0 105 104"><rect width="104" height="104" x=".5" fill="#FFD200" rx="17.333"/><g clip-path="url(#clip0_286_11962)"><circle cx="82.832" cy="43.333" r="4.333" fill="#000"/></g><g clip-path="url(#clip1_286_11962)"><circle cx="22.164" cy="43.333" r="4.333" fill="#000"/></g><path fill="#000" d="M44.5639 49.7371C44.1733 48.7607 44.7175 47.6614 45.7307 47.38L45.8781 47.339C50.2098 46.1358 54.7876 46.1358 59.1193 47.339L59.2666 47.38C60.2799 47.6614 60.8241 48.7607 60.4335 49.7371L60.0863 50.6051C59.5393 51.9726 58.5278 53.1035 57.2295 53.799C54.2743 55.3821 50.7231 55.3821 47.7679 53.799C46.4696 53.1035 45.4581 51.9726 44.9111 50.6051L44.5639 49.7371Z"/><path stroke="#000" stroke-linecap="round" stroke-width="4.333" d="M19.999 65V65C28.8607 72.5957 41.809 73.0175 51.1462 66.0146L52.007 65.369C52.2986 65.1504 52.6995 65.1504 52.9911 65.369L53.8518 66.0146C63.189 73.0175 76.1373 72.5957 84.999 65V65"/><defs><clipPath id="clip0_286_11962"><rect width="8.667" height="8.667" x="78.499" y="39" fill="#fff" rx="4.333"/></clipPath><clipPath id="clip1_286_11962"><rect width="8.667" height="8.667" x="17.832" y="39" fill="#fff" rx="4.333"/></clipPath></defs></svg>