<svg xmlns="http://www.w3.org/2000/svg" width="177" height="113" fill="none" viewBox="0 0 177 113"><path stroke="#003A5F" stroke-width="1.184" d="M172.613 45.4021V60.1273"/><path stroke="#003A5F" stroke-width="1.354" d="M4.08911 56.0377V71.1719"/><circle cx="161.204" cy="30.86" r="9.326" fill="#003A5F" stroke="#003A5F" stroke-width="1.8"/><path fill="#003A5F" stroke="#003A5F" stroke-width=".846" d="M172.702 55.1777C173.646 67.2163 165.19 78.9484 150.521 88.1647C135.872 97.3691 115.127 103.991 91.7587 105.824C68.3908 107.658 46.8667 104.351 30.9613 97.5434C15.0352 90.727 4.85275 80.457 3.9084 68.4184C2.96405 56.3799 11.4205 44.6478 26.089 35.4314C40.7384 26.2271 61.4836 19.6047 84.8515 17.7717C108.219 15.9386 129.743 19.2452 145.649 26.0527C161.575 32.8691 171.757 43.1391 172.702 55.1777Z"/><path fill="#fff" stroke="#003A5F" stroke-width="1.354" d="M172.449 50.1994C173.382 62.0967 165.025 73.7541 150.386 82.9517C135.778 92.1301 115.074 98.7428 91.7388 100.573C68.4034 102.404 46.9217 99.1003 31.0612 92.3119C15.1674 85.5094 5.0947 75.2978 4.16143 63.4004C3.22816 51.5031 11.5854 39.8458 26.224 30.6482C40.8321 21.4698 61.536 14.8571 84.8713 13.0266C108.207 11.196 129.688 14.4995 145.549 21.2879C161.443 28.0904 171.515 38.3021 172.449 50.1994Z"/><path fill="#fff" stroke="#003A5F" stroke-width="1.8" d="M172.226 44.5185C173.15 56.2916 164.88 67.8832 150.267 77.0644C135.696 86.22 115.028 92.8242 91.7214 94.6524C68.4145 96.4807 46.9701 93.1799 31.149 86.4084C15.2837 79.6181 5.30744 69.4578 4.38391 57.6847C3.46039 45.9115 11.7303 34.3199 26.3428 25.1388C40.9146 15.9832 61.5819 9.37898 84.8888 7.5507C108.196 5.72243 129.64 9.02323 145.461 15.7947C161.326 22.5851 171.303 32.7454 172.226 44.5185Z"/><path fill="url(#paint0_linear_3817_1701)" fill-rule="evenodd" d="M90.4313 11.9418C87.861 12.0124 85.2586 12.1495 82.6306 12.3557C40.1331 15.6893 7.04945 35.8242 8.7363 57.3282C10.1406 75.2301 35.1996 88.4373 68.0744 90.4363L90.4313 11.9418ZM88.9146 90.2147C131.328 86.8395 164.318 66.7304 162.634 45.256C161.799 34.6204 152.616 25.6419 138.405 19.6862L88.9146 90.2147Z" clip-rule="evenodd"/><path fill="#8BBECE" d="M87.6674 55.5574C87.6674 55.5574 71.0191 77.4195 69.7395 77.4085C68.4489 77.3976 78.3578 57.4529 78.3578 57.4529L87.6674 55.5574Z"/><path fill="#8BBECE" d="M104.092 49.86L129.193 60.0058L96.5786 52.9826L104.092 49.86Z"/><path fill="#fff" d="M86.1661 45.0057L45.3711 40.4149L74.2447 50.8894"/><path stroke="#003B62" stroke-linecap="round" stroke-linejoin="round" stroke-miterlimit="10" stroke-width="1.4" d="M86.1661 45.0057L45.3711 40.4149L74.2447 50.8894"/><path fill="#8BBECE" d="M85.1666 47.3526C85.1666 47.3526 74.1552 46.0218 56.4482 43.7661L74.4457 50.3107L85.1666 47.3526Z"/><path fill="#8BBECE" d="M93.1764 45.0429L105.297 27.0851L83.7334 47.6616L93.1764 45.0429Z"/><path fill="#003B62" d="M89.5812 51.1284L86.1899 46.0245L128.848 38.8574L89.5812 51.1284Z"/><path stroke="#003B62" stroke-linecap="round" stroke-linejoin="round" stroke-miterlimit="10" stroke-width="1.8" d="M86.7361 45.9819L91.953 54.9116L135.329 36.8879L86.7361 45.9819Z"/><path fill="#fff" stroke="#003B62" stroke-linecap="round" stroke-linejoin="round" stroke-miterlimit="10" stroke-width="1.8" d="M91.9529 54.9112L86.736 45.9816L43.3599 63.9942L91.9529 54.9112Z"/><path stroke="#003B62" stroke-linecap="round" stroke-linejoin="round" stroke-miterlimit="10" stroke-width="1.4" d="M100.342 43.4286L110.404 21.2415L86.1675 45.0064"/><path stroke="#003B62" stroke-linecap="round" stroke-linejoin="round" stroke-miterlimit="10" stroke-width="1.8" d="M78.3579 57.4522L68.2959 79.6394L92.5213 55.8745"/><path stroke="#003B62" stroke-linecap="round" stroke-linejoin="round" stroke-miterlimit="10" stroke-width="1.8" d="M92.5205 55.8757L133.326 60.4665L104.092 49.8605"/><path stroke="#003B62" stroke-linecap="round" stroke-linejoin="round" stroke-miterlimit="10" stroke-width="1.8" d="M147.695 32.321L156.313 29.2422"/><path stroke="#003B62" stroke-linecap="round" stroke-linejoin="round" stroke-miterlimit="10" stroke-width="1.8" d="M19.6348 70.3989L28.3078 67.7474"/><path stroke="#003B62" stroke-linecap="round" stroke-linejoin="round" stroke-miterlimit="10" stroke-width="1.4" d="M52.1167 22.0586L56.3406 25.6487"/><path stroke="#003B62" stroke-linecap="round" stroke-linejoin="round" stroke-miterlimit="10" stroke-width="2.2" d="M113.418 75.8665L120.888 81.4762"/><defs><linearGradient id="paint0_linear_3817_1701" x1="7.361" x2="168.929" y1="46.63" y2="52.765" gradientUnits="userSpaceOnUse"><stop stop-color="#EBEBEB"/><stop offset="1" stop-color="#F0F0F0"/></linearGradient></defs></svg>