<svg xmlns="http://www.w3.org/2000/svg" width="243" height="157" fill="none" viewBox="0 0 243 157"><path stroke="#2C3338" d="M9.57031 156.287H0"/><path stroke="#2C3338" d="M188.06 155.794H220.976"/><path stroke="#2C3338" d="M225.574 155.794H234.379"/><path stroke="#2C3338" d="M238.406 155.794L243 155.794"/><rect width="38.275" height="16.851" x="105.932" y="132.086" fill="#2D3338"/><path fill="#FACFD2" stroke="#2C3338" d="M30.6092 27.5009C30.6092 22.2542 34.8625 18.0009 40.1092 18.0009H199.778C205.025 18.0009 209.278 22.2542 209.278 27.5009V156.281H30.6092V27.5009Z"/><circle cx="207.952" cy="24.587" r="23.587" fill="#fff" stroke="#fff" stroke-width="2"/><circle cx="207.952" cy="24.587" r="21.587" fill="#fff" stroke="#D63638" stroke-width="2"/><line x1="207.697" x2="207.697" y1="13.039" y2="29.861" stroke="#D63638" stroke-linecap="round" stroke-width="2"/><line x1="207.697" x2="207.697" y1="34.37" y2="36.135" stroke="#D63638" stroke-linecap="round" stroke-width="2"/><path stroke="#2C3338" d="M30.1092 57.0133L208.791 57.0133"/><path fill="#fff" stroke="#2C3338" d="M51.0832 38.8745C51.0832 41.1847 49.2117 43.0569 46.9037 43.0569C44.5958 43.0569 42.7243 41.1847 42.7243 38.8745C42.7243 36.5644 44.5958 34.6922 46.9037 34.6922C49.2117 34.6922 51.0832 36.5644 51.0832 38.8745Z"/><path fill="#fff" stroke="#2C3338" d="M65.6367 38.8741C65.6367 41.1842 63.7652 43.0564 61.4572 43.0564C59.1493 43.0564 57.2778 41.1842 57.2778 38.8741C57.2778 36.5639 59.1493 34.6917 61.4572 34.6917C63.7652 34.6917 65.6367 36.5639 65.6367 38.8741Z"/><path fill="#fff" stroke="#2C3338" d="M80.1925 38.8741C80.1925 41.1842 78.321 43.0564 76.0131 43.0564C73.7051 43.0564 71.8336 41.1842 71.8336 38.8741C71.8336 36.5639 73.7051 34.6917 76.0131 34.6917C78.321 34.6917 80.1925 36.5639 80.1925 38.8741Z"/><path stroke="#2C3338" d="M54.009 156.287H13.8207"/><path fill="#fff" d="M31.0968 58.001H208.791V155.794H31.0968V58.001Z"/><path stroke="#2C3338" d="M209.285 77.7573C226.067 91.5865 253.018 122.307 226.561 134.556C193.49 149.867 170.785 98.5012 138.701 98.9951"/><path stroke="#2C3338" d="M30.6038 86.6471C17.7703 93.7263 -7.97352 115.734 8.88561 133.568C26.1612 151.842 52.8154 123.196 96.2518 110.848"/><path stroke="#2C3338" d="M96.0351 110.546C93.8235 103.379 100.846 99.6792 104.634 98.7256L110.949 112.553C106.991 114.32 98.2467 117.714 96.0351 110.546Z"/><path stroke="#2C3338" d="M139.052 98.6221C139.199 106.123 131.428 107.737 127.524 107.606L125.272 92.5713C129.563 91.9676 138.905 91.1218 139.052 98.6221Z"/><path stroke="#2C3338" d="M118.462 97.5129L126.321 96.525"/><line x2="7.714" y1="-.5" y2="-.5" stroke="#2C3338" transform="matrix(-0.768026 -0.640419 0.63995 -0.768416 98.7203 90.5991)"/><line x2="9.109" y1="-.5" y2="-.5" stroke="#2C3338" transform="matrix(-0.216802 -0.976215 0.976159 -0.217059 111.554 83.6846)"/><line x2="4.074" y1="-.5" y2="-.5" stroke="#2C3338" transform="matrix(-0.242394 -0.970178 0.970107 -0.242677 108.593 71.8308)"/><path stroke="#2C3338" d="M123.618 83.5646L126.071 72.818"/><line x2="9.729" y1="-.5" y2="-.5" stroke="#2C3338" transform="matrix(-0.405928 0.913905 -0.913718 -0.406349 107.604 125.172)"/><line x2="7.193" y1="-.5" y2="-.5" stroke="#2C3338" transform="matrix(0.274564 0.961569 -0.961479 0.274879 122.413 123.197)"/><line x2="3.124" y1="-.5" y2="-.5" stroke="#2C3338" transform="matrix(0.316051 0.948742 -0.948624 0.316404 125.374 133.074)"/><line x2="11.258" y1="-.5" y2="-.5" stroke="#2C3338" transform="matrix(0.789168 0.614178 -0.613703 0.789537 134.259 116.282)"/><path stroke="#2C3338" d="M119.945 104.921L126.78 103.933"/></svg>