<svg xmlns="http://www.w3.org/2000/svg" width="134" height="152" fill="none" viewBox="0 0 134 152"><path fill="#DCF1FF" d="M17.5434 86.3293C16.4036 87.754 16.6271 89.8466 18.0798 90.9819C28.2035 98.8846 64.4523 126.978 68.6761 126.867C72.8329 126.756 108.523 98.9514 119.518 90.314C121.172 89.0229 121.194 86.5296 119.563 85.194L112.3 79.1834C100.232 69.2104 85.0574 63.7563 69.3913 63.7563H64.6535C46.3056 63.7563 28.9857 72.0598 17.5434 86.3293Z"/><path stroke="#003C65" stroke-linecap="round" stroke-linejoin="round" stroke-miterlimit="10" stroke-width="1.8" d="M61.1 147.77L2.01123 88.9338H131.989L72.9222 147.77C69.6593 151.043 64.3628 151.043 61.1 147.77Z"/><path stroke="#003C65" stroke-linecap="round" stroke-linejoin="round" stroke-miterlimit="10" stroke-width="1.8" d="M30.6619 88.9338L67.0001 150.219L100.902 88.9338L67.0001 53.1599L30.6619 88.9338Z"/><path stroke="#003C65" stroke-linecap="round" stroke-linejoin="round" stroke-miterlimit="10" stroke-width="1.8" d="M131.989 88.9337H2.01123L36.4946 53.0708H94.5106L131.989 88.9337Z"/><path stroke="#003C65" stroke-linecap="round" stroke-linejoin="round" stroke-miterlimit="10" stroke-width="1.8" d="M19.7783 12.1768L38.8637 33.4808"/><path stroke="#003C65" stroke-linecap="round" stroke-linejoin="round" stroke-miterlimit="10" stroke-width="1.8" d="M108.858 12.1768L89.7727 33.4808"/><path stroke="#003C65" stroke-linecap="round" stroke-linejoin="round" stroke-miterlimit="10" stroke-width="1.8" d="M65.7708 2.00366V27.1144"/></svg>