<svg xmlns="http://www.w3.org/2000/svg" width="360" height="278" fill="none" viewBox="0 0 360 278"><path fill="#3981D2" d="M0 0H360V277H0V0Z"/><rect width="239.002" height="239.002" x="60.973" y="38" fill="#fff"/><rect width="211.34" height="26.556" x="75.357" y="51.276" fill="#E2E4E7"/><rect width="185.891" height="39.834" x="87.529" y="237.168" fill="#E2E4E7"/><rect width="66.389" height="39.834" x="100.808" y="184.055" fill="#E2E4E7"/><rect width="66.389" height="39.834" x="190" y="184.055" fill="#E2E4E7"/><rect width="239.002" height="79.667" x="60.974" y="91.109" fill="#E2E4E7"/><mask id="mask0" width="20" height="15" x="171" y="122" mask-type="alpha" maskUnits="userSpaceOnUse"><path fill="#fff" fill-rule="evenodd" d="M183.429 122.16H171.488V124.16H183.429V122.16ZM190.395 122.16H185.419V130.34C185.111 130.23 184.772 130.16 184.424 130.16C182.772 130.16 181.439 131.5 181.439 133.16C181.439 134.82 182.772 136.16 184.424 136.16C186.076 136.16 187.409 134.82 187.409 133.16V124.16H190.395V122.16ZM171.488 126.16H183.429V128.16H171.488V126.16ZM179.449 130.16H171.488V132.16H179.449V130.16ZM184.424 132.16C183.877 132.16 183.429 132.61 183.429 133.16C183.429 133.71 183.877 134.16 184.424 134.16C184.971 134.16 185.419 133.71 185.419 133.16C185.419 132.61 184.971 132.16 184.424 132.16Z" clip-rule="evenodd"/></mask><g mask="url(#mask0)"><rect width="23.882" height="24" x="169" y="117.16" fill="#1E1E1E"/></g><rect width="13.831" height="13.831" x="127.087" y="197.057" stroke="#1E1E1E" stroke-width="1.66" rx="1.383"/><path stroke="#1E1E1E" stroke-linecap="round" stroke-linejoin="bevel" stroke-width="1.66" d="M127.364 208.397L131.487 205.745C131.881 205.492 132.391 205.514 132.762 205.8L134.59 207.21C135.017 207.54 135.621 207.513 136.017 207.146L140.642 202.864"/><rect width="13.831" height="13.831" x="220.033" y="197.057" stroke="#1E1E1E" stroke-width="1.66" rx="1.383"/><path stroke="#1E1E1E" stroke-linecap="round" stroke-linejoin="bevel" stroke-width="1.66" d="M220.309 208.397L224.433 205.745C224.826 205.492 225.337 205.514 225.707 205.8L227.535 207.21C227.963 207.54 228.566 207.513 228.963 207.146L233.587 202.864"/><line x1="183.701" x2="183.701" y1="265.94" y2="249.22" stroke="#1E1E1E" stroke-width="1.66"/><line x1="178.783" x2="178.783" y1="265.94" y2="249.22" stroke="#1E1E1E" stroke-width="1.66"/><line x1="187.482" x2="177.646" y1="249.063" y2="249.063" stroke="#1E1E1E" stroke-width="1.66"/><path fill="#1E1E1E" stroke="#1E1E1E" stroke-width="1.66" d="M177.308 253.643V258.148C175.175 257.757 173.558 255.889 173.558 253.643C173.558 251.397 175.175 249.529 177.308 249.138V253.643Z"/><circle cx="180.474" cy="64.554" r="8.022" stroke="#1E1E1E" stroke-width="1.66"/><path fill="#1E1E1E" d="M178.818 63.8361L183.742 60.5331L182.139 65.7649L177.209 69.0327L178.818 63.8361Z"/></svg>