<svg xmlns="http://www.w3.org/2000/svg" width="96" height="96" fill="none" viewBox="0 0 96 96"><rect width="96" height="96" fill="#fff"/><path fill="#00AC47" d="M69 60.9759V58.6468V55.4303V40.2907V37.0742L71.4783 31.9167L83.8696 22.1009C85.5217 20.7145 88 21.8791 88 24.0419V70.9581C88 73.1209 85.4667 74.2855 83.8145 72.8991L69 60.9759Z"/><path fill="#FE2C25" d="M28 15L8 35H28V15Z"/><path fill="#2684FC" d="M28 35H8V61H28V35Z"/><path fill="#0066DA" d="M8 61V74.3333C8 78 11 81 14.6667 81H28V61H8Z"/><path fill="#FFBA00" d="M71.5 21.5902C71.5 17.9656 68.5638 15 64.975 15H51.925H28V35H52.5V48L71.5 47.4016V21.5902Z"/><path fill="#00AC47" d="M52.5 61H28V81H51.925H64.975C68.5638 81 71.5 78.0387 71.5 74.4194V48H52.5V61Z"/><path fill="#00832D" d="M71.5 32V63L52.5 48L71.5 32Z"/></svg>