<svg xmlns="http://www.w3.org/2000/svg" width="186" height="115" fill="none" viewBox="0 0 186 115"><rect width="87" height="3" x="99" y="12" fill="#E9EFF5" rx="1.5"/><rect width="87" height="3" x="99" y="18" fill="#E9EFF5" rx="1.5"/><rect width="87" height="3" x="99" y="24" fill="#E9EFF5" rx="1.5"/><rect width="81" height="3" x="99" y="30" fill="#E9EFF5" rx="1.5"/><rect width="87" height="3" x="99" y="42" fill="#E9EFF5" rx="1.5"/><rect width="87" height="3" x="99" y="48" fill="#E9EFF5" rx="1.5"/><rect width="87" height="3" x="99" y="54" fill="#E9EFF5" rx="1.5"/><rect width="81" height="3" x="99" y="60" fill="#E9EFF5" rx="1.5"/><rect width="87" height="3" x="99" y="70" fill="#E9EFF5" rx="1.5"/><rect width="87" height="3" x="99" y="76" fill="#E9EFF5" rx="1.5"/><rect width="87" height="3" x="99" y="82" fill="#E9EFF5" rx="1.5"/><rect width="81" height="3" x="99" y="88" fill="#E9EFF5" rx="1.5"/><rect width="87" height="3" x="99" y="94" fill="#E9EFF5" rx="1.5"/><rect width="87" height="3" x="99" y="100" fill="#E9EFF5" rx="1.5"/><rect width="87" height="3" x="99" y="106" fill="#E9EFF5" rx="1.5"/><rect width="81" height="3" x="99" y="112" fill="#E9EFF5" rx="1.5"/><rect width="83" height="115" fill="#E9EFF5" rx="2"/><rect width="46" height="5" x="99" fill="#E9EFF5" rx="2"/></svg>