<svg xmlns="http://www.w3.org/2000/svg" width="208" height="139" fill="none" viewBox="0 0 208 139"><rect width="65.586" height="39" y="14" fill="#E9EFF5" rx="2"/><rect width="65.586" height="3" y="56" fill="#E9EFF5" rx="1.5"/><rect width="65.586" height="3" y="62" fill="#E9EFF5" rx="1.5"/><rect width="48.721" height="3" y="68" fill="#E9EFF5" rx="1.5"/><rect width="65.586" height="39" x="71.207" y="14" fill="#E9EFF5" rx="2"/><rect width="65.586" height="3" x="71.207" y="56" fill="#E9EFF5" rx="1.5"/><rect width="65.586" height="3" x="71.207" y="62" fill="#E9EFF5" rx="1.5"/><rect width="48.721" height="3" x="71.207" y="68" fill="#E9EFF5" rx="1.5"/><rect width="65.586" height="39" x="142.415" y="14" fill="#E9EFF5" rx="2"/><rect width="65.586" height="3" x="142.415" y="56" fill="#E9EFF5" rx="1.5"/><rect width="65.586" height="3" x="142.415" y="62" fill="#E9EFF5" rx="1.5"/><rect width="48.721" height="3" x="142.415" y="68" fill="#E9EFF5" rx="1.5"/><rect width="65.586" height="39" y="82" fill="#E9EFF5" rx="2"/><rect width="65.586" height="3" y="124" fill="#E9EFF5" rx="1.5"/><rect width="65.586" height="3" y="130" fill="#E9EFF5" rx="1.5"/><rect width="48.721" height="3" y="136" fill="#E9EFF5" rx="1.5"/><rect width="65.586" height="39" x="71.207" y="82" fill="#E9EFF5" rx="2"/><rect width="65.586" height="3" x="71.207" y="124" fill="#E9EFF5" rx="1.5"/><rect width="65.586" height="3" x="71.207" y="130" fill="#E9EFF5" rx="1.5"/><rect width="48.721" height="3" x="71.207" y="136" fill="#E9EFF5" rx="1.5"/><rect width="65.586" height="39" x="142.415" y="82" fill="#E9EFF5" rx="2"/><rect width="65.586" height="3" x="142.415" y="124" fill="#E9EFF5" rx="1.5"/><rect width="65.586" height="3" x="142.415" y="130" fill="#E9EFF5" rx="1.5"/><rect width="48.721" height="3" x="142.415" y="136" fill="#E9EFF5" rx="1.5"/><rect width="88" height="5" x="60" fill="#E9EFF5" rx="2"/></svg>