<svg xmlns="http://www.w3.org/2000/svg" width="161" height="63" fill="none" viewBox="0 0 161 63"><rect width="160" height="62" x=".5" y=".5" fill="#E9EFF5" rx="2.5"/><rect width="48" height="39" x="12" y="12" fill="#fff" rx="2"/><rect width="54.3" height="8.3" x="72.35" y="30.35" fill="#fff" stroke="#fff" stroke-width=".7" rx=".65"/><rect width="20" height="9" x="129" y="30" fill="#fff" rx="1"/><rect width="28" height="3" x="72" y="24" fill="#fff" rx="1.5"/><path fill="#fff" d="M139.333 38.1167L138.85 37.6767C137.133 36.12 136 35.0933 136 33.8333C136 32.8067 136.807 32 137.833 32C138.413 32 138.97 32.27 139.333 32.6967C139.697 32.27 140.253 32 140.833 32C141.86 32 142.667 32.8067 142.667 33.8333C142.667 35.0933 141.533 36.12 139.817 37.68L139.333 38.1167Z"/><rect width="160" height="62" x=".5" y=".5" stroke="#E9EFF5" rx="2.5"/></svg>