<svg xmlns="http://www.w3.org/2000/svg" width="185" height="115" fill="none" viewBox="0 0 185 115"><rect width="87" height="3" y="12" fill="#E9EFF5" rx="1.5"/><rect width="87" height="3" y="18" fill="#E9EFF5" rx="1.5"/><rect width="87" height="3" y="24" fill="#E9EFF5" rx="1.5"/><rect width="81" height="3" y="30" fill="#E9EFF5" rx="1.5"/><rect width="87" height="3" y="42" fill="#E9EFF5" rx="1.5"/><rect width="87" height="3" y="48" fill="#E9EFF5" rx="1.5"/><rect width="87" height="3" y="54" fill="#E9EFF5" rx="1.5"/><rect width="81" height="3" y="60" fill="#E9EFF5" rx="1.5"/><rect width="87" height="3" y="70" fill="#E9EFF5" rx="1.5"/><rect width="87" height="3" y="76" fill="#E9EFF5" rx="1.5"/><rect width="87" height="3" y="82" fill="#E9EFF5" rx="1.5"/><rect width="81" height="3" y="88" fill="#E9EFF5" rx="1.5"/><rect width="87" height="3" y="94" fill="#E9EFF5" rx="1.5"/><rect width="87" height="3" y="100" fill="#E9EFF5" rx="1.5"/><rect width="87" height="3" y="106" fill="#E9EFF5" rx="1.5"/><rect width="81" height="3" y="112" fill="#E9EFF5" rx="1.5"/><rect width="83" height="115" x="102" fill="#E9EFF5" rx="2"/><rect width="46" height="5" fill="#E9EFF5" rx="2"/></svg>