<svg xmlns="http://www.w3.org/2000/svg" width="186" height="128" fill="none" viewBox="0 0 186 128"><rect width="87" height="40" fill="#E9EFF5" rx="2"/><rect width="87" height="40" y="70" fill="#E9EFF5" rx="2"/><rect width="87" height="3" y="43" fill="#E9EFF5" rx="1.5"/><rect width="87" height="3" y="113" fill="#E9EFF5" rx="1.5"/><rect width="87" height="3" y="49" fill="#E9EFF5" rx="1.5"/><rect width="87" height="3" y="119" fill="#E9EFF5" rx="1.5"/><rect width="67" height="3" y="55" fill="#E9EFF5" rx="1.5"/><rect width="67" height="3" y="125" fill="#E9EFF5" rx="1.5"/><rect width="87" height="40" x="99" fill="#E9EFF5" rx="2"/><rect width="87" height="40" x="99" y="70" fill="#E9EFF5" rx="2"/><rect width="87" height="3" x="99" y="43" fill="#E9EFF5" rx="1.5"/><rect width="87" height="3" x="99" y="113" fill="#E9EFF5" rx="1.5"/><rect width="87" height="3" x="99" y="49" fill="#E9EFF5" rx="1.5"/><rect width="87" height="3" x="99" y="119" fill="#E9EFF5" rx="1.5"/><rect width="81" height="3" x="99" y="55" fill="#E9EFF5" rx="1.5"/><rect width="81" height="3" x="99" y="125" fill="#E9EFF5" rx="1.5"/></svg>