<svg xmlns="http://www.w3.org/2000/svg" width="178" height="118" fill="none" viewBox="0 0 178 118"><rect width="82" height="5" x="48" fill="#E9EFF5" rx="2"/><circle cx="23" cy="35" r="14" fill="#E9EFF5"/><rect width="46" height="3" y="53" fill="#E9EFF5" rx="1.5"/><rect width="32" height="3" x="7" y="58" fill="#E9EFF5" rx="1.5"/><circle cx="23" cy="92" r="14" fill="#E9EFF5"/><rect width="46" height="3" y="110" fill="#E9EFF5" rx="1.5"/><rect width="32" height="3" x="7" y="115" fill="#E9EFF5" rx="1.5"/><circle cx="89" cy="35" r="14" fill="#E9EFF5"/><rect width="46" height="3" x="66" y="53" fill="#E9EFF5" rx="1.5"/><rect width="32" height="3" x="73" y="58" fill="#E9EFF5" rx="1.5"/><circle cx="89" cy="92" r="14" fill="#E9EFF5"/><rect width="46" height="3" x="66" y="110" fill="#E9EFF5" rx="1.5"/><rect width="32" height="3" x="73" y="115" fill="#E9EFF5" rx="1.5"/><circle cx="155" cy="35" r="14" fill="#E9EFF5"/><rect width="46" height="3" x="132" y="53" fill="#E9EFF5" rx="1.5"/><rect width="32" height="3" x="139" y="58" fill="#E9EFF5" rx="1.5"/><circle cx="155" cy="92" r="14" fill="#E9EFF5"/><rect width="46" height="3" x="132" y="110" fill="#E9EFF5" rx="1.5"/><rect width="32" height="3" x="139" y="115" fill="#E9EFF5" rx="1.5"/></svg>