<svg xmlns="http://www.w3.org/2000/svg" width="170" height="108" fill="none" viewBox="0 0 170 108"><rect width="56" height="6" fill="#E9EFF5" rx="2"/><rect width="31" height="4" y="8" fill="#E9EFF5" rx="2"/><rect width="91" height="3" x="77" fill="#E9EFF5" rx="1.5"/><rect width="91" height="3" x="77" y="7" fill="#E9EFF5" rx="1.5"/><rect width="91" height="3" x="77" y="14" fill="#E9EFF5" rx="1.5"/><rect width="71" height="3" x="77" y="21" fill="#E9EFF5" rx="1.5"/><rect width="91" height="3" x="77" y="42" fill="#E9EFF5" rx="1.5"/><rect width="91" height="3" x="77" y="49" fill="#E9EFF5" rx="1.5"/><rect width="91" height="3" x="77" y="56" fill="#E9EFF5" rx="1.5"/><rect width="71" height="3" x="77" y="63" fill="#E9EFF5" rx="1.5"/><rect width="91" height="3" x="77" y="83" fill="#E9EFF5" rx="1.5"/><rect width="91" height="3" x="77" y="90" fill="#E9EFF5" rx="1.5"/><rect width="91" height="3" x="77" y="97" fill="#E9EFF5" rx="1.5"/><rect width="71" height="3" x="77" y="104" fill="#E9EFF5" rx="1.5"/></svg>