<svg xmlns="http://www.w3.org/2000/svg" width="131" height="143" fill="none" viewBox="0 0 131 143"><rect width="131" height="60" fill="#E9EFF5" rx="2"/><path fill="#fff" d="M72.5 28.634C73.1667 29.0189 73.1667 29.9811 72.5 30.366L62.75 35.9952C62.0833 36.3801 61.25 35.899 61.25 35.1292L61.25 23.8708C61.25 23.101 62.0833 22.6199 62.75 23.0048L72.5 28.634Z"/><rect width="112" height="3" x="19" y="66" fill="#E9EFF5" rx="1.5"/><rect width="87" height="3" x="19" y="72" fill="#E9EFF5" rx="1.5"/><rect width="131" height="60" y="83" fill="#E9EFF5" rx="2"/><path fill="#fff" d="M72.5 111.634C73.1667 112.019 73.1667 112.981 72.5 113.366L62.75 118.995C62.0833 119.38 61.25 118.899 61.25 118.129L61.25 106.871C61.25 106.101 62.0833 105.62 62.75 106.005L72.5 111.634Z"/><ellipse cx="6.5" cy="70" fill="#E9EFF5" rx="6.5" ry="6"/></svg>